<?xml version="1.0" encoding="UTF-8" standalone="no"?><!DOCTYPE svg PUBLIC "-//W3C//DTD SVG 1.1//EN" "http://www.w3.org/Graphics/SVG/1.1/DTD/svg11.dtd"><svg width="100%" height="100%" viewBox="0 0 319 133" version="1.1" xmlns="http://www.w3.org/2000/svg" xmlns:xlink="http://www.w3.org/1999/xlink" xml:space="preserve" xmlns:serif="http://www.serif.com/" style="fill-rule:evenodd;clip-rule:evenodd;stroke-linejoin:round;stroke-miterlimit:2;"><g transform="matrix(0.75,0,0,0.75,-116.541,-224.817)"><g transform="matrix(144,0,0,144,237.468,392.204)"><path d="M0.045,-0.305l0,-0.029l0.471,-0.287l0.038,0.062l-0.397,0.235l0.398,0.231l-0.038,0.06l-0.472,-0.272Z" style="fill-rule:nonzero;"/></g><g transform="matrix(144,0,0,144,323.868,392.204)"><path d="M0.342,-0.225l-0.145,0l-0.039,0.167l-0.069,-0l0.039,-0.167l-0.098,0l0.014,-0.064l0.099,0l0.031,-0.131l-0.094,0l0.014,-0.064l0.095,0l0.038,-0.158l0.069,0l-0.038,0.158l0.145,0l0.038,-0.158l0.069,0l-0.038,0.158l0.097,0l-0.016,0.064l-0.096,0l-0.031,0.131l0.093,0l-0.016,0.064l-0.092,-0l-0.039,0.167l-0.069,-0l0.039,-0.167Zm-0.13,-0.064l0.145,0l0.031,-0.131l-0.145,0l-0.031,0.131Z" style="fill-rule:nonzero;"/></g><g transform="matrix(144,0,0,144,410.268,392.204)"><path d="M0.083,-0.033l-0.038,-0.06l0.398,-0.231l-0.397,-0.235l0.038,-0.062l0.471,0.287l0,0.029l-0.472,0.272Z" style="fill-rule:nonzero;"/></g><g transform="matrix(72,0,0,72,151.068,476.204)"><path d="M0.457,-0.465l0.01,-0.095l-0.005,0l-0.048,0.086l-0.102,0.171l-0.025,0l-0.107,-0.172l-0.046,-0.085l-0.005,0l0.012,0.094l-0,0.466l-0.081,0l-0,-0.7l0.077,0l0.166,0.266l0.002,0l0.16,-0.266l0.075,0l0,0.7l-0.083,0l0,-0.465Z" style="fill-rule:nonzero;"/></g><g transform="matrix(72,0,0,72,194.268,476.204)"><path d="M0.108,-0.461c0.029,-0.017 0.061,-0.029 0.097,-0.036c0.036,-0.007 0.071,-0.011 0.106,-0.011c0.034,0 0.062,0.005 0.084,0.016c0.021,0.011 0.038,0.024 0.05,0.041c0.013,0.018 0.021,0.037 0.026,0.058c0.004,0.022 0.006,0.044 0.006,0.066c0,0.025 -0.001,0.052 -0.002,0.081c-0.001,0.029 -0.002,0.057 -0.003,0.086c0,0.033 0.002,0.065 0.006,0.095l0.067,-0l0,0.065l-0.133,-0l-0.009,-0.075l-0.005,-0c-0.004,0.006 -0.01,0.014 -0.018,0.023c-0.008,0.009 -0.019,0.018 -0.031,0.027c-0.014,0.009 -0.029,0.017 -0.048,0.024c-0.019,0.007 -0.041,0.01 -0.066,0.01c-0.049,-0 -0.088,-0.013 -0.117,-0.038c-0.029,-0.025 -0.043,-0.06 -0.043,-0.104c0,-0.034 0.008,-0.062 0.023,-0.085c0.015,-0.023 0.036,-0.04 0.064,-0.052c0.028,-0.012 0.062,-0.019 0.102,-0.021c0.039,-0.002 0.084,0.001 0.133,0.008c0.003,-0.031 0.004,-0.056 0.002,-0.077c-0.003,-0.02 -0.008,-0.036 -0.017,-0.048c-0.008,-0.012 -0.02,-0.02 -0.034,-0.026c-0.015,-0.005 -0.034,-0.007 -0.056,-0.007c-0.03,0 -0.059,0.004 -0.086,0.013c-0.027,0.008 -0.052,0.016 -0.073,0.025l-0.025,-0.058Zm0.147,0.403c0.019,-0 0.036,-0.003 0.052,-0.009c0.016,-0.006 0.03,-0.014 0.042,-0.023c0.012,-0.009 0.022,-0.02 0.03,-0.031c0.008,-0.011 0.014,-0.021 0.018,-0.031l0,-0.07c-0.035,-0.006 -0.067,-0.009 -0.096,-0.009c-0.029,-0 -0.055,0.003 -0.076,0.009c-0.021,0.007 -0.038,0.017 -0.05,0.03c-0.012,0.013 -0.018,0.031 -0.018,0.052c0,0.022 0.008,0.041 0.023,0.057c0.015,0.017 0.04,0.025 0.075,0.025Z" style="fill-rule:nonzero;"/></g><g transform="matrix(72,0,0,72,237.468,476.204)"><path d="M0.066,-0l0,-0.067l0.135,0l0,-0.366l-0.135,0l0,-0.067l0.187,0l0.016,0.065l0.005,0c0.023,-0.021 0.048,-0.038 0.076,-0.053c0.028,-0.015 0.061,-0.022 0.1,-0.022c0.023,0 0.041,0.004 0.054,0.013c0.014,0.009 0.025,0.021 0.032,0.038c0.008,0.017 0.013,0.037 0.016,0.061c0.003,0.023 0.004,0.05 0.004,0.08l-0.07,0.001c-0,-0.043 -0.004,-0.074 -0.013,-0.094c-0.008,-0.02 -0.023,-0.03 -0.045,-0.03c-0.021,0 -0.039,0.003 -0.056,0.009c-0.017,0.006 -0.031,0.013 -0.044,0.022c-0.012,0.009 -0.022,0.017 -0.031,0.026c-0.009,0.009 -0.015,0.016 -0.019,0.022l-0,0.295l0.192,0l-0,0.067l-0.404,-0Z" style="fill-rule:nonzero;"/></g><g transform="matrix(72,0,0,72,280.668,476.204)"><path d="M0.024,-0.7l0.162,0l0,0.414l0.055,0l0.197,-0.214l0.094,0l-0.221,0.237l0.182,0.196l0.065,0l0,0.067l-0.103,-0l-0.214,-0.226l-0.055,0l-0,0.226l-0.077,-0l-0,-0.633l-0.085,0l-0,-0.067Z" style="fill-rule:nonzero;"/></g><g transform="matrix(72,0,0,72,323.868,476.204)"><path d="M0.1,-0.693c0.025,-0.005 0.054,-0.008 0.087,-0.011c0.034,-0.003 0.064,-0.004 0.091,-0.004c0.031,0 0.06,0.003 0.087,0.01c0.028,0.007 0.052,0.018 0.073,0.033c0.021,0.015 0.038,0.035 0.051,0.06c0.013,0.025 0.019,0.055 0.019,0.09c0,0.027 -0.005,0.051 -0.014,0.073c-0.009,0.021 -0.02,0.038 -0.032,0.053c-0.014,0.016 -0.027,0.028 -0.041,0.037c-0.014,0.009 -0.026,0.016 -0.036,0.02l0.185,0.332l-0.097,-0l-0.165,-0.308l-0.125,0l-0,0.308l-0.083,-0l-0,-0.693Zm0.18,0.057l-0.027,0c-0.009,0 -0.018,0 -0.027,0.001c-0.009,0.001 -0.017,0.001 -0.024,0.002c-0.008,0.001 -0.014,0.002 -0.019,0.003l-0,0.258l0.078,0c0.046,-0 0.084,-0.011 0.114,-0.034c0.03,-0.023 0.045,-0.058 0.045,-0.106c0,-0.036 -0.012,-0.066 -0.037,-0.089c-0.025,-0.023 -0.059,-0.035 -0.103,-0.035Z" style="fill-rule:nonzero;"/></g><g transform="matrix(72,0,0,72,367.068,476.204)"><path d="M0.529,-0.063c-0.012,0.011 -0.026,0.021 -0.043,0.03c-0.016,0.009 -0.034,0.017 -0.053,0.024c-0.019,0.007 -0.04,0.012 -0.061,0.016c-0.021,0.003 -0.042,0.005 -0.063,0.005c-0.04,0 -0.075,-0.006 -0.106,-0.019c-0.031,-0.012 -0.056,-0.03 -0.077,-0.053c-0.021,-0.023 -0.036,-0.05 -0.047,-0.082c-0.011,-0.032 -0.016,-0.068 -0.016,-0.108c-0,-0.042 0.006,-0.079 0.017,-0.112c0.012,-0.033 0.029,-0.06 0.051,-0.082c0.022,-0.022 0.049,-0.039 0.08,-0.05c0.031,-0.012 0.066,-0.018 0.105,-0.018c0.028,0 0.056,0.004 0.083,0.011c0.027,0.007 0.051,0.021 0.072,0.041c0.021,0.021 0.038,0.049 0.049,0.085c0.011,0.035 0.015,0.081 0.012,0.138l-0.387,-0c-0,0.06 0.016,0.105 0.048,0.134c0.033,0.03 0.076,0.045 0.13,0.045c0.018,-0 0.036,-0.002 0.053,-0.007c0.018,-0.004 0.035,-0.009 0.051,-0.015c0.016,-0.006 0.03,-0.013 0.042,-0.02c0.013,-0.007 0.022,-0.014 0.029,-0.02l0.031,0.057Zm-0.211,-0.383c-0.022,0 -0.043,0.002 -0.063,0.007c-0.019,0.005 -0.037,0.012 -0.052,0.023c-0.015,0.011 -0.027,0.026 -0.037,0.043c-0.009,0.018 -0.015,0.04 -0.018,0.066l0.311,0c-0.003,-0.044 -0.018,-0.078 -0.043,-0.103c-0.025,-0.024 -0.057,-0.036 -0.098,-0.036Z" style="fill-rule:nonzero;"/></g><g transform="matrix(72,0,0,72,410.268,476.204)"><path d="M0.108,-0.461c0.029,-0.017 0.061,-0.029 0.097,-0.036c0.036,-0.007 0.071,-0.011 0.106,-0.011c0.034,0 0.062,0.005 0.084,0.016c0.021,0.011 0.038,0.024 0.05,0.041c0.013,0.018 0.021,0.037 0.026,0.058c0.004,0.022 0.006,0.044 0.006,0.066c0,0.025 -0.001,0.052 -0.002,0.081c-0.001,0.029 -0.002,0.057 -0.003,0.086c0,0.033 0.002,0.065 0.006,0.095l0.067,-0l0,0.065l-0.133,-0l-0.009,-0.075l-0.005,-0c-0.004,0.006 -0.01,0.014 -0.018,0.023c-0.008,0.009 -0.019,0.018 -0.031,0.027c-0.014,0.009 -0.029,0.017 -0.048,0.024c-0.019,0.007 -0.041,0.01 -0.066,0.01c-0.049,-0 -0.088,-0.013 -0.117,-0.038c-0.029,-0.025 -0.043,-0.06 -0.043,-0.104c0,-0.034 0.008,-0.062 0.023,-0.085c0.015,-0.023 0.036,-0.04 0.064,-0.052c0.028,-0.012 0.062,-0.019 0.102,-0.021c0.039,-0.002 0.084,0.001 0.133,0.008c0.003,-0.031 0.004,-0.056 0.002,-0.077c-0.003,-0.02 -0.008,-0.036 -0.017,-0.048c-0.008,-0.012 -0.02,-0.02 -0.034,-0.026c-0.015,-0.005 -0.034,-0.007 -0.056,-0.007c-0.03,0 -0.059,0.004 -0.086,0.013c-0.027,0.008 -0.052,0.016 -0.073,0.025l-0.025,-0.058Zm0.147,0.403c0.019,-0 0.036,-0.003 0.052,-0.009c0.016,-0.006 0.03,-0.014 0.042,-0.023c0.012,-0.009 0.022,-0.02 0.03,-0.031c0.008,-0.011 0.014,-0.021 0.018,-0.031l0,-0.07c-0.035,-0.006 -0.067,-0.009 -0.096,-0.009c-0.029,-0 -0.055,0.003 -0.076,0.009c-0.021,0.007 -0.038,0.017 -0.05,0.03c-0.012,0.013 -0.018,0.031 -0.018,0.052c0,0.022 0.008,0.041 0.023,0.057c0.015,0.017 0.04,0.025 0.075,0.025Z" style="fill-rule:nonzero;"/></g><g transform="matrix(72,0,0,72,453.468,476.204)"><path d="M0.349,-0.7l0.162,0l0,0.529c0,0.006 0,0.014 0.001,0.023c0.001,0.009 0.001,0.018 0.002,0.028c0.001,0.01 0.003,0.02 0.004,0.03c0.001,0.009 0.003,0.018 0.004,0.025l0.067,0l0,0.065l-0.133,0l-0.01,-0.077l-0.004,0c-0.015,0.025 -0.036,0.047 -0.065,0.064c-0.029,0.017 -0.063,0.025 -0.101,0.025c-0.075,0 -0.131,-0.021 -0.166,-0.063c-0.036,-0.043 -0.054,-0.109 -0.054,-0.198c0,-0.042 0.006,-0.079 0.018,-0.111c0.012,-0.033 0.029,-0.06 0.052,-0.081c0.022,-0.022 0.049,-0.039 0.08,-0.05c0.031,-0.011 0.066,-0.017 0.105,-0.017c0.014,0 0.027,0 0.038,0.001c0.011,0.001 0.021,0.002 0.03,0.003c0.009,0.001 0.018,0.003 0.027,0.006c0.008,0.002 0.017,0.004 0.027,0.007l0,-0.142l-0.084,0l0,-0.067Zm-0.06,0.645c0.041,-0 0.073,-0.011 0.096,-0.032c0.023,-0.021 0.039,-0.052 0.048,-0.094l0,-0.232c-0.015,-0.01 -0.031,-0.017 -0.049,-0.022c-0.019,-0.005 -0.043,-0.007 -0.073,-0.007c-0.053,-0 -0.095,0.015 -0.126,0.046c-0.031,0.031 -0.046,0.08 -0.046,0.147c0,0.027 0.003,0.053 0.008,0.076c0.005,0.024 0.013,0.045 0.025,0.062c0.011,0.017 0.027,0.031 0.046,0.041c0.019,0.01 0.043,0.015 0.071,0.015Z" style="fill-rule:nonzero;"/></g><g transform="matrix(72,0,0,72,496.668,476.204)"><path d="M0.529,-0.063c-0.012,0.011 -0.026,0.021 -0.043,0.03c-0.016,0.009 -0.034,0.017 -0.053,0.024c-0.019,0.007 -0.04,0.012 -0.061,0.016c-0.021,0.003 -0.042,0.005 -0.063,0.005c-0.04,0 -0.075,-0.006 -0.106,-0.019c-0.031,-0.012 -0.056,-0.03 -0.077,-0.053c-0.021,-0.023 -0.036,-0.05 -0.047,-0.082c-0.011,-0.032 -0.016,-0.068 -0.016,-0.108c-0,-0.042 0.006,-0.079 0.017,-0.112c0.012,-0.033 0.029,-0.06 0.051,-0.082c0.022,-0.022 0.049,-0.039 0.08,-0.05c0.031,-0.012 0.066,-0.018 0.105,-0.018c0.028,0 0.056,0.004 0.083,0.011c0.027,0.007 0.051,0.021 0.072,0.041c0.021,0.021 0.038,0.049 0.049,0.085c0.011,0.035 0.015,0.081 0.012,0.138l-0.387,-0c-0,0.06 0.016,0.105 0.048,0.134c0.033,0.03 0.076,0.045 0.13,0.045c0.018,-0 0.036,-0.002 0.053,-0.007c0.018,-0.004 0.035,-0.009 0.051,-0.015c0.016,-0.006 0.03,-0.013 0.042,-0.02c0.013,-0.007 0.022,-0.014 0.029,-0.02l0.031,0.057Zm-0.211,-0.383c-0.022,0 -0.043,0.002 -0.063,0.007c-0.019,0.005 -0.037,0.012 -0.052,0.023c-0.015,0.011 -0.027,0.026 -0.037,0.043c-0.009,0.018 -0.015,0.04 -0.018,0.066l0.311,0c-0.003,-0.044 -0.018,-0.078 -0.043,-0.103c-0.025,-0.024 -0.057,-0.036 -0.098,-0.036Z" style="fill-rule:nonzero;"/></g><g transform="matrix(72,0,0,72,539.868,476.204)"><path d="M0.066,-0l0,-0.067l0.135,0l0,-0.366l-0.135,0l0,-0.067l0.187,0l0.016,0.065l0.005,0c0.023,-0.021 0.048,-0.038 0.076,-0.053c0.028,-0.015 0.061,-0.022 0.1,-0.022c0.023,0 0.041,0.004 0.054,0.013c0.014,0.009 0.025,0.021 0.032,0.038c0.008,0.017 0.013,0.037 0.016,0.061c0.003,0.023 0.004,0.05 0.004,0.08l-0.07,0.001c-0,-0.043 -0.004,-0.074 -0.013,-0.094c-0.008,-0.02 -0.023,-0.03 -0.045,-0.03c-0.021,0 -0.039,0.003 -0.056,0.009c-0.017,0.006 -0.031,0.013 -0.044,0.022c-0.012,0.009 -0.022,0.017 -0.031,0.026c-0.009,0.009 -0.015,0.016 -0.019,0.022l-0,0.295l0.192,0l-0,0.067l-0.404,-0Z" style="fill-rule:nonzero;"/></g></g></svg>